<svg viewBox="0 0 1200 40" preserveAspectRatio="none" xmlns="http://www.w3.org/2000/svg">
  <!-- Rectangular "Edding" style: thicker, blocky zigzag -->
  <path d="M0,20 L20,10 L20,30 L60,10 L60,30 L100,10 L100,30 L140,10 L140,30 L180,10 L180,30 L220,10 L220,30 L260,10 L260,30 L300,10 L300,30 L340,10 L340,30 L380,10 L380,30 L420,10 L420,30 L460,10 L460,30 L500,10 L500,30 L540,10 L540,30 L580,10 L580,30 L620,10 L620,30 L660,10 L660,30 L700,10 L700,30 L740,10 L740,30 L780,10 L780,30 L820,10 L820,30 L860,10 L860,30 L900,10 L900,30 L940,10 L940,30 L980,10 L980,30 L1020,10 L1020,30 L1060,10 L1060,30 L1100,10 L1100,30 L1140,10 L1140,30 L1180,10 L1180,30 L1200,20" 
        fill="none" stroke="black" stroke-width="12" stroke-linecap="square" stroke-linejoin="miter"/>
</svg>
