<svg viewBox="0 0 1200 60" preserveAspectRatio="none" xmlns="http://www.w3.org/2000/svg">
  <path d="M0,30 Q5,25 10,30 T20,30 T30,30 T40,30 T50,30 T60,30 T70,30 T80,30 T90,30 T100,30 T110,30 T120,30 T130,30 T140,30 T150,30 T160,30 T170,30 T180,30 T190,30 T200,30 T210,30 T220,30 T230,30 T240,30 T250,30 T260,30 T270,30 T280,30 T290,30 T300,30 T310,30 T320,30 T330,30 T340,30 T350,30 T360,30 T370,30 T380,30 T390,30 T400,30 T410,30 T420,30 T430,30 T440,30 T450,30 T460,30 T470,30 T480,30 T490,30 T500,30 T510,30 T520,30 T530,30 T540,30 T550,30 T560,30 T570,30 T580,30 T590,30 T600,30 T610,30 T620,30 T630,30 T640,30 T650,30 T660,30 T670,30 T680,30 T690,30 T700,30 T710,30 T720,30 T730,30 T740,30 T750,30 T760,30 T770,30 T780,30 T790,30 T800,30 T810,30 T820,30 T830,30 T840,30 T850,30 T860,30 T870,30 T880,30 T890,30 T900,30 T910,30 T920,30 T930,30 T940,30 T950,30 T960,30 T970,30 T980,30 T990,30 T1000,30 T1010,30 T1020,30 T1030,30 T1040,30 T1050,30 T1060,30 T1070,30 T1080,30 T1090,30 T1100,30 T1110,30 T1120,30 T1130,30 T1140,30 T1150,30 T1160,30 T1170,30 T1180,30 T1190,30 T1200,30" 
        fill="none" stroke="black" stroke-width="8" stroke-linecap="round" stroke-linejoin="round"/>
</svg>
